<svg width="311" height="39" viewBox="0 0 311 39" fill="none" xmlns="http://www.w3.org/2000/svg">
<path d="M7.49947 4.00038C7.49947 4.00038 0.598116 22.1509 2.09811 27.0236C3.5981 31.8964 11.5 32 29.097 20.0236C35 15 31.9995 12.0004 31.9995 12.0004C27.9995 10.5004 19.9995 23.5004 25.4995 27.5004C30.9995 31.5004 44.9991 23.4907 51.4991 1.99072C37.4991 23.9907 37.4991 28.8776 45.9991 28.8776C65.9991 22.3776 73.4991 8 73.4991 8C73.4991 8 57.3988 20.5004 63.4991 20.5004C66.4991 20.5004 70.9991 18.3575 73.4991 20.5004C75.9991 22.6432 63.4991 33.0004 63.4991 33.0004M35 18C55 17 59.3333 12.6669 59.5 12.0004" stroke="#EBFFF9" stroke-width="2" stroke-linecap="round" stroke-linejoin="round"/>
<path d="M59.9997 5.5C60.999 12 56.828 16.5 55.9996 16.5C55.1711 16.5 59.3323 12 56.9997 5.5C56.9997 4.67157 57.6712 4 58.4997 4C59.3281 4 59.9997 4.67157 59.9997 5.5Z" fill="#EBFFF9"/>
<path d="M134.5 17.5C153.323 16.6146 159.185 13.4912 160 11" stroke="#EBFFF9" stroke-width="2" stroke-linecap="round" stroke-linejoin="round"/>
<path d="M109 5.5C94.0008 16.5 94.3748 25.3139 98.5003 27C102.626 28.6861 116.208 20.952 114 18C111.792 15.048 98.5004 19.8728 103 18C107.5 16.1272 118 24 125.5 21.5C135.136 18.2879 131.5 5.5 124.5 16C120.514 23.8618 124.5 29 127.5 29C140 29 149.5 7.5 148 3C139.5 25 144.191 28.2183 148 29.5C152.798 31.1146 162.161 25.9303 173.435 18C185.512 5.22586 203.392 2.04934 194 3C184.608 3.95066 171.016 23.1918 180.5 28.5C189.984 33.8082 202.5 10 200.5 11.5C198.281 11.168 188.119 25.1832 196.5 28.5C203.595 28.5 208.574 8.47231 196.5 13L212.79 14.0624M219.5 14.5C221.349 18.5 216.39 34.3025 210 27C208.297 26.0872 211.5 17 212.79 14.0624M219.5 14.5C217.276 9.99308 214.079 11.1247 212.79 14.0624M219.5 14.5L212.79 14.0624M212.79 14.0624C215.493 26.2961 227.766 14.7977 233.5 1L225 29.5C226.272 25.2909 227.566 22.0268 229.113 19.5M243.5 11.5C236.401 12.2941 232.241 14.3879 229.113 19.5M229.113 19.5C241.376 44.1268 254.242 16.3247 253.5 16C251.155 22.4045 248.939 24.0146 251 28.5C252.77 31.1354 256.743 25.7392 263.5 12C254.926 43.2483 264.71 20.6922 269 14.0624C273.29 7.43257 272.5 26.5624 276 27C277.466 27.1833 280.863 24.3169 284.5 20.9975M296.5 11.5C291.3 23.9 287 27 284.5 27C282 27 284 21.4484 284.5 20.9975M296.5 11.5C293.2 11.7642 286.712 17.6896 284.5 20.9975M296.5 11.5C299.871 41.913 281.818 37.8278 281 35.5C280.182 33.1722 307.671 26.8522 309.5 13" stroke="#EBFFF9" stroke-width="2" stroke-linecap="round" stroke-linejoin="round"/>
<circle cx="255" cy="10" r="2" fill="#EBFFF9"/>
</svg>
