<svg width="607" height="596" viewBox="0 0 607 596" fill="none" xmlns="http://www.w3.org/2000/svg">
<g clip-path="url(#clip0_286_1545)">
<path d="M411.682 184.261C416.821 186.417 416.821 186.417 419.091 187.765C418.571 189.919 417.782 191.553 416.424 193.313C416.293 193.49 416.163 193.667 416.028 193.849C410.778 200.456 400.697 202.291 392.88 204.133C388.951 205.062 385.198 206.247 381.436 207.714C380.858 207.914 380.858 207.914 380.265 207.914C380.384 212.287 381.218 216.283 382.715 220.405C382.932 221.054 382.932 221.054 382.932 221.639C383.301 221.678 383.301 221.678 383.678 221.718C384.909 221.971 385.895 222.426 387.008 222.989C387.215 223.093 387.422 223.196 387.635 223.303C389.312 224.159 390.999 225.069 392.417 226.311C392.417 226.503 392.417 226.696 392.417 226.895C392.672 227.002 392.672 227.002 392.933 227.111C397.889 229.832 400.578 237.407 402.063 242.403C403.411 247.32 404.115 252.391 404.897 257.418C405.784 263.476 405.784 263.476 408.014 269.145C408.189 269.472 408.364 269.798 408.544 270.134C408.699 270.416 408.854 270.698 409.014 270.989C409.114 271.214 409.215 271.438 409.318 271.67C409.595 272.26 409.595 272.26 410.496 272.449C410.496 272.642 410.496 272.834 410.496 273.033C410.669 273.117 410.842 273.201 411.021 273.287C411.426 273.489 411.828 273.698 412.222 273.919C414.085 274.931 415.857 275.315 417.961 274.876C419.739 274.354 421.028 273.383 422.055 271.865C422.814 270.221 422.924 268.558 422.476 266.814C421.516 264.311 419.541 262.795 417.128 261.699C416.599 261.482 416.068 261.269 415.535 261.06C415.121 260.885 414.707 260.709 414.294 260.531C414.019 260.417 413.744 260.302 413.46 260.184C413.46 260.088 413.46 259.992 413.46 259.892C418.547 260.091 422.902 260.872 426.737 264.425C429.227 267.182 429.366 270.333 429.218 273.847C428.952 277.341 426.697 280.646 424.112 282.961C423.729 283.261 423.34 283.554 422.944 283.837C422.766 283.971 422.588 284.105 422.405 284.242C418.976 286.596 414.867 286.935 410.855 286.283C406.738 285.327 402.948 283.446 399.826 280.625C399.609 280.438 399.392 280.251 399.169 280.058C391.959 273.468 389.325 263.314 386.612 254.36C384.329 246.681 384.329 246.681 379.968 240.035C379.968 239.843 379.968 239.65 379.968 239.451C379.702 239.334 379.702 239.334 379.431 239.214C378.788 238.87 378.395 238.508 377.894 237.991C377.825 238.298 377.757 238.605 377.686 238.921C377 241.878 376.2 244.477 374.041 246.752C373.845 246.752 373.649 246.752 373.448 246.752C373.38 246.919 373.313 247.086 373.243 247.258C372.75 248.099 372.162 248.555 371.392 249.161C371.099 249.392 370.807 249.622 370.506 249.86C369.662 250.498 368.801 251.099 367.928 251.698C365.094 253.712 362.526 256.423 361.907 259.929C361.857 263.015 363.222 265.346 365.353 267.521C366.944 269.024 368.68 270.44 370.695 271.353C371.823 271.928 372.636 272.429 373.08 273.652C373.478 275.218 373.7 276.812 373.926 278.409C374.668 283.314 377.028 289.185 381.086 292.365C381.413 292.625 381.413 292.625 381.747 292.89C381.747 293.083 381.747 293.275 381.747 293.474C381.901 293.545 382.055 293.617 382.214 293.691C383.149 294.169 384.039 294.715 384.933 295.262C385.111 295.371 385.29 295.48 385.474 295.592C385.911 295.859 386.348 296.126 386.785 296.394C386.313 300.808 385.497 305.167 384.711 309.535C385.072 309.488 385.433 309.441 385.805 309.392C387.605 309.197 389.398 309.19 391.208 309.183C391.576 309.181 391.944 309.179 392.323 309.177C393.515 309.172 394.707 309.17 395.899 309.17C396.204 309.169 396.204 309.169 396.515 309.169C402.971 309.167 409.37 309.307 415.788 310.046C416.445 310.121 417.102 310.194 417.759 310.266C432.343 311.889 446.567 315.076 460.763 318.666C461.065 318.742 461.367 318.818 461.678 318.896C461.955 318.966 462.232 319.037 462.518 319.109C462.761 319.171 463.004 319.232 463.255 319.296C463.846 319.463 463.846 319.463 464.439 319.755C464.551 319.392 464.551 319.392 464.665 319.021C465.079 317.872 465.595 316.814 466.152 315.727C466.262 315.511 466.371 315.295 466.484 315.073C466.839 314.376 467.195 313.68 467.551 312.984C467.794 312.506 468.037 312.029 468.281 311.551C469.751 308.671 471.239 305.801 472.783 302.957C472.963 302.622 473.144 302.287 473.33 301.942C473.597 301.485 473.597 301.485 473.869 301.018C474.276 300.057 474.303 299.694 473.923 298.73C473.406 298.037 473.406 298.037 472.737 297.38C471.505 296.084 470.358 294.745 469.226 293.363C468.469 292.455 467.679 291.583 466.873 290.717C466.513 290.262 466.513 290.262 466.513 289.678C466.318 289.678 466.122 289.678 465.921 289.678C465.519 289.243 465.141 288.789 464.772 288.327C463.689 286.993 462.587 285.681 461.456 284.385C461.231 284.126 461.231 284.126 461 283.862C459.79 282.478 458.565 281.107 457.325 279.749C457.423 279.557 457.521 279.364 457.622 279.165C458.133 279.384 458.644 279.602 459.156 279.821C461.708 280.86 464.426 280.446 466.979 279.59C470.626 278.067 473.541 275.798 476.294 273.015C476.887 272.449 476.887 272.449 477.48 272.449C477.556 272.283 477.632 272.116 477.71 271.945C478.111 271.211 478.582 270.64 479.128 270.003C483.709 264.411 487.052 257.611 486.451 250.268C486.247 248.747 485.681 247.474 484.889 246.168C484.759 245.953 484.629 245.739 484.496 245.517C482.254 242.507 478.053 241.32 474.49 240.729C473.674 240.607 473.674 240.607 473.034 240.619C472.58 241.213 472.157 241.81 471.737 242.426C470.294 244.481 468.682 246.297 466.919 248.089C466.564 248.452 466.217 248.821 465.872 249.192C459.737 255.598 449.855 261.163 441.024 262.812C440.633 262.812 440.242 262.812 439.839 262.812C439.362 262.315 439.362 262.315 438.896 261.612C438.721 261.353 438.545 261.093 438.364 260.825C438.178 260.541 437.992 260.258 437.801 259.965C437.402 259.373 437.003 258.78 436.604 258.188C436.402 257.887 436.2 257.585 435.992 257.275C435.099 255.953 434.173 254.656 433.244 253.358C432.902 252.879 432.561 252.4 432.219 251.92C432.056 251.691 431.893 251.461 431.724 251.225C429.723 248.408 427.756 245.581 425.908 242.663C426.099 242.636 426.29 242.608 426.486 242.579C436.174 241.146 444.07 238.103 451.101 231.275C451.442 230.945 451.442 230.945 451.79 230.608C455.192 227.099 457.644 222.803 459.696 218.426C459.876 218.048 460.056 217.67 460.236 217.291C460.654 216.406 461.067 215.52 461.475 214.63C463.069 215.48 464.476 216.451 465.902 217.55C466.348 217.89 466.794 218.23 467.24 218.57C467.465 218.741 467.689 218.912 467.921 219.089C468.944 219.864 469.979 220.623 471.015 221.383C475.82 224.923 480.462 228.66 485.029 232.493C486.001 233.308 486.987 234.102 487.983 234.889C489.527 236.123 490.977 237.446 492.419 238.794C493.321 239.661 493.321 239.661 494.374 240.327C494.374 240.52 494.374 240.713 494.374 240.911C494.637 241.027 494.637 241.027 494.906 241.145C495.583 241.508 495.996 241.876 496.522 242.426C497.209 243.141 497.926 243.792 498.684 244.432C500.138 245.676 501.498 247.01 502.856 248.354C503.283 248.777 503.712 249.198 504.141 249.619C505.691 251.145 507.176 252.704 508.6 254.344C508.903 254.679 509.206 255.012 509.51 255.346C511.986 258.083 514.214 260.949 516.306 263.98C516.442 264.173 516.579 264.366 516.719 264.564C517.087 265.093 517.44 265.629 517.788 266.171C517.984 266.469 518.179 266.767 518.381 267.074C519.038 269.279 517.55 271.673 516.584 273.653C516.469 273.891 516.353 274.128 516.235 274.373C513.739 279.401 510.405 283.581 506.526 287.634C506.317 287.851 506.109 288.069 505.895 288.293C499.991 294.286 491.56 298.641 483.377 300.715C482.321 301.147 482.099 301.509 481.572 302.494C481.411 302.789 481.249 303.083 481.082 303.387C480.914 303.705 480.746 304.023 480.573 304.351C480.207 305.02 479.841 305.689 479.473 306.357C479.289 306.694 479.105 307.032 478.916 307.38C478.108 308.837 477.251 310.263 476.387 311.688C476.072 312.209 475.758 312.731 475.443 313.252C475.214 313.632 475.214 313.632 474.98 314.019C474.202 315.313 473.431 316.612 472.663 317.912C472.525 318.144 472.387 318.377 472.245 318.617C472.118 318.831 471.992 319.045 471.862 319.266C471.696 319.546 471.696 319.546 471.527 319.832C471.213 320.385 471.213 320.385 470.959 321.215C471.244 321.245 471.528 321.275 471.822 321.305C473.215 321.501 474.505 321.948 475.831 322.401C476.284 322.555 476.736 322.708 477.189 322.861C477.582 322.993 477.976 323.126 478.369 323.259C476.934 329.098 475.344 334.883 473.679 340.661C473.37 341.734 473.062 342.807 472.754 343.88C472.157 345.962 471.559 348.044 470.959 350.125C471.241 350.164 471.524 350.204 471.814 350.244C472.186 350.296 472.557 350.349 472.94 350.402C473.308 350.454 473.676 350.505 474.055 350.559C474.906 350.68 475.755 350.805 476.604 350.937C494.508 353.668 512.153 351.509 529.644 347.496C528.999 349.403 526.19 350.394 524.457 351.293C510.917 357.74 495.058 359.701 480.211 359.857C461.882 360.069 443.166 361.82 426.501 369.981C426.242 370.107 425.983 370.232 425.715 370.361C419.911 373.187 414.709 376.542 410.595 381.558C410.464 381.689 410.334 381.819 410.2 381.954C410.004 381.954 409.809 381.954 409.607 381.954C409.541 382.115 409.475 382.276 409.407 382.442C408.891 383.335 408.227 383.942 407.477 384.655C406.345 385.746 405.261 386.856 404.233 388.043C403.671 388.68 403.092 389.3 402.51 389.918C401.077 391.44 399.717 392.998 398.395 394.617C397.77 395.365 397.121 396.079 396.455 396.792C394.974 398.397 393.629 400.095 392.284 401.81C391.792 402.436 391.295 403.059 390.798 403.682C388.696 406.32 386.652 408.984 384.711 411.739C384.564 411.946 384.418 412.152 384.268 412.365C381.844 415.794 379.525 419.278 377.301 422.836C377.082 423.186 377.082 423.186 376.858 423.544C374.643 427.095 372.576 430.713 370.577 434.386C370.239 435.007 369.896 435.626 369.552 436.244C367.749 439.495 366.153 442.844 364.556 446.197C364.43 446.461 364.304 446.724 364.174 446.996C359.805 456.128 355.958 465.485 352.283 474.905C351.715 476.358 351.134 477.805 350.543 479.249C349.961 480.676 349.408 482.102 348.903 483.557C348.229 485.48 347.511 487.385 346.78 489.288C345.25 493.292 343.775 497.314 342.308 501.34C342.012 502.151 341.716 502.961 341.419 503.772C339.035 510.284 336.673 516.802 334.714 523.453C334.654 523.654 334.594 523.856 334.533 524.063C333 529.233 331.559 534.427 330.109 539.619C329.133 543.113 328.153 546.606 327.168 550.098C326.898 551.056 326.629 552.014 326.36 552.973C321.012 572.039 321.012 572.039 319.209 573.223C319.775 569.134 320.431 565.072 321.191 561.013C321.242 560.738 321.294 560.464 321.346 560.18C325.43 538.273 330.65 516.636 336.992 495.255C337.127 494.799 337.262 494.342 337.397 493.885C341.096 481.403 345.31 469.039 349.922 456.856C350.02 456.597 350.118 456.339 350.218 456.073C351.262 453.321 352.331 450.581 353.447 447.856C353.914 446.715 354.373 445.57 354.832 444.426C357.078 438.836 359.407 433.292 361.889 427.8C361.975 427.61 362.06 427.42 362.149 427.225C366.363 417.898 370.884 408.713 375.634 399.639C375.776 399.366 375.776 399.366 375.922 399.088C377.268 396.52 378.665 393.993 380.192 391.524C380.728 390.653 381.225 389.766 381.718 388.87C385.638 381.741 390.099 374.905 394.96 368.367C400.853 360.576 400.853 360.576 402.494 351.293C401.784 348.488 400.488 346.569 397.999 345.018C391.835 341.78 384.935 341.019 378.24 342.918C372.658 344.643 368.217 348.021 363.964 351.877C363.71 352.105 363.457 352.334 363.196 352.569C361.089 354.558 359.399 356.871 357.677 359.179C356.297 361.02 354.853 362.776 353.315 364.49C352.662 365.224 352.104 365.899 351.596 366.743C351.472 366.944 351.347 367.146 351.219 367.353C351.023 367.353 350.828 367.353 350.626 367.353C350.562 367.505 350.497 367.656 350.43 367.812C349.872 368.81 349.152 369.649 348.422 370.529C348.096 370.926 347.771 371.323 347.446 371.72C347.2 372.019 347.2 372.019 346.95 372.324C342.84 377.343 338.894 382.491 335.089 387.737C334.616 388.386 334.139 389.033 333.661 389.679C331.351 392.806 329.112 395.977 326.915 399.183C326.791 399.363 326.668 399.544 326.54 399.73C325.822 400.779 325.111 401.833 324.403 402.889C324.066 403.392 323.728 403.895 323.391 404.397C320.767 408.304 318.198 412.23 315.79 416.27C315.335 417.031 314.876 417.79 314.417 418.548C310.978 424.237 307.685 430.006 304.492 435.833C304.24 436.294 303.987 436.754 303.733 437.214C301.914 440.511 300.255 443.873 298.632 447.267C298.224 448.119 297.814 448.969 297.402 449.819C291.295 462.441 285.965 475.351 281.127 488.492C280.747 489.526 280.36 490.557 279.971 491.588C274.495 506.196 269.88 521.261 265.785 536.302C265.699 536.62 265.612 536.939 265.522 537.267C265.232 538.349 264.951 539.433 264.674 540.517C264.616 540.741 264.559 540.964 264.499 541.194C262.704 548.192 261.287 555.278 259.795 562.343C258.416 568.874 257.032 575.402 255.507 581.901C255.452 582.134 255.398 582.366 255.342 582.606C253.012 592.514 253.012 592.514 251.337 596C251.141 596 250.945 596 250.744 596C250.926 591.894 251.418 587.831 251.929 583.754C251.974 583.394 252.019 583.034 252.065 582.664C253.63 570.201 255.671 557.799 258.153 545.482C258.204 545.229 258.255 544.977 258.307 544.716C262.679 523.057 268.405 501.632 275.701 480.748C275.948 480.039 276.192 479.33 276.436 478.621C281.012 465.324 286.271 452.296 292.053 439.464C292.579 438.295 293.097 437.123 293.609 435.948C294.928 432.918 296.292 429.934 297.823 427.002C298.54 425.618 299.24 424.226 299.944 422.836C300.252 422.229 300.56 421.623 300.868 421.017C301.371 420.025 301.873 419.033 302.373 418.039C308.301 406.263 314.918 394.792 322.09 383.709C322.418 383.202 322.744 382.693 323.07 382.184C327.983 374.524 333.288 367.071 338.993 359.962C339.391 359.464 339.788 358.965 340.184 358.466C340.52 358.045 340.858 357.625 341.196 357.205C343.769 353.89 346.68 349.18 346.097 344.831C345.826 343.765 345.649 343.449 344.698 342.824C340.739 342.125 336.738 344.885 333.651 346.985C329.08 350.148 324.996 353.749 321.043 357.626C320.834 357.83 320.625 358.035 320.41 358.246C319.225 359.416 318.094 360.616 316.999 361.867C316.427 362.521 315.836 363.157 315.245 363.794C314.09 365.055 312.994 366.353 311.911 367.673C311.157 368.581 310.387 369.473 309.614 370.365C308.355 371.821 307.143 373.307 305.951 374.816C304.899 376.146 303.824 377.455 302.741 378.76C301.589 380.15 300.456 381.549 299.351 382.976C298.089 384.607 296.784 386.2 295.467 387.788C294.27 389.233 293.098 390.694 291.934 392.164C290.775 393.624 289.571 395.045 288.355 396.459C287.789 397.092 287.789 397.092 287.496 397.723C287.3 397.723 287.104 397.723 286.903 397.723C286.837 397.881 286.771 398.039 286.703 398.202C286.185 399.11 285.494 399.819 284.773 400.57C284.478 400.882 284.183 401.194 283.888 401.506C283.745 401.658 283.601 401.81 283.453 401.966C282.35 403.14 281.282 404.339 280.29 405.607C280.125 405.8 279.96 405.993 279.79 406.191C279.594 406.191 279.398 406.191 279.197 406.191C279.099 406.48 279.001 406.769 278.901 407.067C278.705 407.067 278.509 407.067 278.308 407.067C278.308 407.26 278.308 407.453 278.308 407.651C278.112 407.651 277.917 407.651 277.715 407.651C277.715 407.844 277.715 408.037 277.715 408.235C277.519 408.235 277.324 408.235 277.122 408.235C277.122 408.428 277.122 408.621 277.122 408.819C276.927 408.819 276.731 408.819 276.529 408.819C276.529 409.012 276.529 409.205 276.529 409.403C276.334 409.403 276.138 409.403 275.937 409.403C275.839 409.692 275.741 409.982 275.64 410.279C274.966 410.898 274.283 411.463 273.566 412.031C273.267 412.274 272.969 412.517 272.661 412.767C267.864 416.623 263.103 419.673 256.672 419.04C255.501 418.782 254.483 418.397 253.411 417.872C253.059 417.701 253.059 417.701 252.699 417.527C248.314 415.16 244.476 411.191 241.397 407.384C240.865 406.728 240.327 406.08 239.779 405.436C237.469 402.709 235.397 399.87 233.401 396.914C233 396.321 232.594 395.731 232.185 395.143C230.14 392.186 228.277 389.127 226.44 386.042C226.267 385.752 226.094 385.461 225.915 385.162C222.018 378.61 218.375 371.949 214.918 365.163C214.797 364.927 214.677 364.691 214.552 364.448C214.211 363.777 213.87 363.106 213.531 362.435C213.428 362.232 213.324 362.029 213.217 361.82C212.51 360.412 212.51 360.412 212.51 359.761C212.26 359.886 212.011 360.01 211.754 360.139C205.966 363.016 200.157 365.857 194.134 368.229C193.889 368.327 193.644 368.424 193.391 368.525C172.047 376.99 172.047 376.99 168.348 376.99C169.429 379.329 170.516 381.665 171.609 383.998C171.737 384.272 171.865 384.546 171.997 384.828C173.874 388.831 175.948 392.704 178.129 396.555C178.411 397.055 178.693 397.555 178.975 398.056C179.187 398.432 179.399 398.807 179.611 399.183C184.113 397.453 188.537 395.576 192.948 393.635C193.282 393.488 193.616 393.342 193.959 393.191C198.846 391.044 203.721 388.87 208.59 386.685C208.971 386.514 209.351 386.344 209.732 386.174C210.595 385.788 211.455 385.397 212.312 384.996C212.606 384.86 212.899 384.723 213.202 384.582C213.457 384.462 213.711 384.341 213.974 384.217C214.175 384.145 214.377 384.073 214.585 383.998C214.78 384.095 214.976 384.191 215.177 384.29C212.817 386.286 210.342 388.036 207.762 389.741C207.23 390.094 206.702 390.45 206.175 390.809C198.692 395.86 190.724 400.239 182.575 404.147C187.338 411.815 192.383 419.319 197.691 426.632C197.852 426.855 198.013 427.078 198.179 427.307C201.155 431.409 204.214 435.446 207.343 439.436C207.835 440.064 208.325 440.693 208.813 441.323C210.178 443.083 211.569 444.817 213.001 446.526C213.783 447.471 214.546 448.43 215.307 449.391C216.579 450.995 217.882 452.565 219.211 454.124C219.887 454.919 220.553 455.722 221.216 456.527C222.674 458.287 224.176 460.007 225.681 461.728C226.144 462.259 226.606 462.791 227.068 463.324C228.613 465.11 230.172 466.879 231.773 468.617C232.317 469.211 232.854 469.811 233.387 470.416C234.471 471.643 235.585 472.842 236.698 474.043C237.264 474.659 237.82 475.28 238.37 475.909C239.422 477.103 240.517 478.258 241.611 479.414C241.881 479.699 241.881 479.699 242.156 479.989C242.875 480.746 243.591 481.493 244.349 482.211C244.816 482.699 244.816 482.699 244.816 483.283C245.012 483.283 245.207 483.283 245.409 483.283C245.816 483.691 245.816 483.691 246.298 484.268C247.596 485.777 249.016 487.154 250.447 488.539C250.35 488.732 250.252 488.925 250.151 489.123C248.526 487.947 246.902 486.768 245.28 485.588C244.803 485.241 244.327 484.895 243.85 484.549C241.415 482.783 239.053 480.971 236.774 479.012C236.16 478.511 235.593 478.096 234.926 477.68C234.669 477.505 234.411 477.33 234.146 477.151C234.146 476.958 234.146 476.765 234.146 476.566C233.989 476.504 233.831 476.442 233.669 476.378C232.687 475.83 231.92 475.083 231.108 474.322C230.76 474 230.412 473.679 230.064 473.358C229.814 473.127 229.814 473.127 229.559 472.892C229.036 472.413 228.501 471.95 227.959 471.493C224.66 468.66 221.541 465.643 218.439 462.603C218.055 462.227 217.67 461.851 217.285 461.475C216.739 460.942 216.195 460.407 215.651 459.872C215.483 459.709 215.316 459.546 215.144 459.378C213.992 458.237 213.992 458.237 213.992 457.586C213.796 457.586 213.601 457.586 213.399 457.586C213.399 457.393 213.399 457.2 213.399 457.002C213.203 457.002 213.008 457.002 212.806 457.002C212.336 456.532 212.336 456.532 211.806 455.907C211.224 455.229 210.655 454.592 210.009 453.972C209.546 453.497 209.546 453.497 209.546 452.913C209.35 452.913 209.155 452.913 208.953 452.913C208.553 452.472 208.174 452.012 207.805 451.545C206.753 450.246 205.662 449.014 204.507 447.803C203.215 446.441 201.984 445.049 200.798 443.594C200.04 442.667 199.272 441.749 198.502 440.832C193.838 435.275 193.838 435.275 193.838 434.517C193.642 434.517 193.446 434.517 193.245 434.517C192.772 433.947 192.772 433.947 192.207 433.148C191.33 431.928 190.434 430.732 189.503 429.552C184.672 423.403 180.187 417.005 175.758 410.571C175.633 410.39 175.508 410.209 175.379 410.022C171.368 404.191 167.579 398.214 163.902 392.175C163.743 391.914 163.584 391.653 163.42 391.385C160.896 387.246 158.481 383.049 156.131 378.811C155.758 378.143 155.382 377.479 155 376.817C154.805 376.473 154.611 376.13 154.416 375.786C154.15 375.324 154.15 375.324 153.88 374.853C153.529 374.07 153.529 374.07 153.825 373.194C154.434 372.935 154.434 372.935 155.251 372.72C155.558 372.636 155.866 372.552 156.184 372.465C156.524 372.374 156.865 372.283 157.215 372.19C171.312 368.24 185.216 362.52 198.209 355.86C199.714 355.089 199.714 355.089 200.358 355.089C200.309 354.922 200.26 354.755 200.209 354.582C197.513 345.353 196.297 337.307 201.136 328.517C204.222 323.48 208.763 319.239 213.507 315.736C213.947 315.408 214.382 315.072 214.815 314.735C215.214 314.428 215.214 314.428 215.622 314.116C215.902 313.9 216.181 313.685 216.469 313.463C217.34 312.843 218.257 312.388 219.22 311.921C222.403 310.459 222.403 310.459 224.362 307.789C224.635 305.724 224.434 303.693 224.069 301.65C224.265 301.554 224.46 301.458 224.662 301.358C224.717 301.567 224.772 301.776 224.829 301.991C225.084 302.949 225.345 303.906 225.606 304.862C225.693 305.191 225.78 305.52 225.869 305.858C226.349 307.6 226.85 309.065 227.934 310.532C228.218 310.995 228.218 310.995 228.218 311.871C227.826 312.083 227.826 312.083 227.425 312.3C225.351 313.436 223.395 314.63 221.494 316.038C220.983 316.414 220.455 316.768 219.92 317.109C218.463 318.095 217.127 319.225 215.77 320.339C215.573 320.497 215.375 320.655 215.172 320.817C213.836 321.901 212.725 323.117 211.621 324.427C211.331 324.762 211.331 324.762 211.036 325.103C207.1 329.765 205.036 334.887 205.331 340.958C205.615 343.97 206.919 346.655 208.551 349.173C208.953 349.833 208.953 349.833 208.953 350.417C209.621 350.096 210.288 349.773 210.954 349.449C211.162 349.348 211.37 349.247 211.584 349.142C212.84 348.524 214.075 347.878 215.299 347.2C215.565 347.052 215.831 346.905 216.106 346.753C216.631 346.46 217.155 346.165 217.677 345.867C218.038 345.665 218.038 345.665 218.406 345.46C218.62 345.339 218.833 345.218 219.053 345.093C219.623 344.868 219.623 344.868 220.512 345.16C220.906 345.912 220.906 345.912 221.307 346.925C221.417 347.2 221.417 347.2 221.53 347.48C221.69 347.878 221.848 348.276 222.006 348.675C222.428 349.746 222.862 350.812 223.294 351.879C223.383 352.098 223.472 352.317 223.563 352.543C224.45 354.73 225.39 356.892 226.347 359.049C226.468 359.32 226.468 359.32 226.59 359.597C226.984 360.484 227.378 361.372 227.772 362.258C228.197 363.218 228.618 364.179 229.036 365.142C230.274 367.987 231.553 370.79 232.986 373.545C233.476 374.492 233.932 375.451 234.381 376.417C235.797 379.457 237.413 382.378 239.063 385.3C239.429 385.949 239.788 386.6 240.146 387.254C243.26 392.901 246.876 398.479 251.324 403.197C251.929 403.855 251.929 403.855 252.484 404.576C253.223 405.442 254.055 406.116 254.967 406.793C255.139 406.921 255.311 407.049 255.489 407.181C258.041 409.048 260.548 410.213 263.821 409.898C265.97 409.461 267.557 408.585 269.12 407.067C269.218 406.874 269.315 406.682 269.416 406.483C269.612 406.483 269.807 406.483 270.009 406.483C270.089 406.313 270.169 406.144 270.251 405.969C270.605 405.309 270.997 404.782 271.472 404.202C272.434 403.005 273.357 401.785 274.269 400.552C275.47 398.932 276.68 397.321 277.905 395.719C278.41 395.057 278.913 394.395 279.415 393.732C282.471 389.693 285.621 385.728 288.784 381.77C289.325 381.094 289.864 380.416 290.403 379.738C292.075 377.632 293.773 375.55 295.498 373.486C295.93 372.962 296.363 372.439 296.795 371.916C297.907 370.574 299.045 369.255 300.188 367.939C301.331 366.613 302.406 365.241 303.45 363.838C303.75 363.442 304.068 363.06 304.39 362.681C304.585 362.681 304.781 362.681 304.983 362.681C305.064 362.508 305.145 362.335 305.229 362.157C305.561 361.54 305.906 361.078 306.372 360.554C306.529 360.376 306.685 360.199 306.847 360.016C307.014 359.829 307.181 359.643 307.354 359.451C307.526 359.257 307.698 359.063 307.875 358.863C309.147 357.435 310.438 356.026 311.74 354.626C312.488 353.817 313.217 352.996 313.946 352.171C314.995 350.99 316.064 349.827 317.134 348.664C317.374 348.404 317.613 348.143 317.86 347.875C320.315 345.22 322.862 342.656 325.433 340.11C325.916 339.631 326.397 339.151 326.877 338.67C335.116 330.406 344.552 326.723 356.346 326.449C357.329 326.443 358.312 326.446 359.295 326.453C359.633 326.454 359.97 326.456 360.318 326.457C361.138 326.461 361.958 326.465 362.778 326.471C362.846 326.112 362.915 325.752 362.985 325.381C364.031 320.068 365.487 315.873 370.204 312.676C372.066 311.581 373.987 310.809 376.115 310.411C376.366 309.146 376.612 307.88 376.856 306.614C376.927 306.258 376.998 305.902 377.071 305.534C377.626 302.876 377.626 302.876 377.597 300.19C377.024 299.406 377.024 299.406 376.208 298.821C371.315 294.915 367.492 288.491 366.337 282.351C365.613 278.586 364.743 276.743 361.592 274.493C358.388 271.812 356.026 267.784 355.368 263.688C354.995 257.175 357.453 252.527 361.711 247.697C362.154 247.211 362.6 246.726 363.05 246.245C363.615 245.639 364.161 245.022 364.704 244.397C365.671 243.294 366.727 242.301 367.812 241.312C369.204 239.699 369.427 238.135 369.354 236.111C369.348 235.791 369.348 235.791 369.342 235.464C369.332 234.944 369.316 234.423 369.298 233.903C368.614 233.71 367.929 233.518 367.224 233.319C367.944 228.41 369.968 224.671 374.041 221.639C375.655 220.762 375.655 220.762 376.412 220.762C376.359 220.587 376.307 220.412 376.253 220.232C376.014 219.43 375.778 218.627 375.541 217.824C375.459 217.549 375.376 217.273 375.292 216.99C374.216 213.325 373.319 208.254 375.226 204.702C375.367 204.426 375.367 204.426 375.511 204.144C377.573 200.75 383.048 200.107 386.631 199.133C397.69 196.244 397.69 196.244 407.532 190.685C407.704 190.563 407.876 190.441 408.053 190.315C410.113 188.786 410.996 186.634 411.682 184.261ZM382.932 317.492C382.373 317.54 382.373 317.54 381.802 317.589C378.712 317.907 375.323 318.385 373.029 320.617C371.869 322.092 371.408 323.671 371.212 325.501C371.187 325.737 371.161 325.974 371.134 326.217C371.115 326.398 371.096 326.578 371.077 326.763C371.437 326.806 371.797 326.848 372.167 326.892C399.962 330.185 426.636 337.372 455.13 345.739C455.475 345.84 455.821 345.941 456.176 346.046C456.505 346.143 456.835 346.24 457.174 346.34C457.491 346.433 457.809 346.527 458.135 346.623C458.813 346.826 459.49 347.033 460.165 347.245C460.508 347.352 460.851 347.459 461.204 347.57C461.512 347.668 461.82 347.765 462.138 347.866C463.006 348.13 463.006 348.13 464.142 348.08C464.272 347.66 464.272 347.66 464.404 347.231C464.736 346.155 465.068 345.079 465.401 344.004C465.549 343.523 465.698 343.042 465.846 342.56C466.595 340.132 467.348 337.706 468.157 335.296C468.269 334.964 468.38 334.631 468.494 334.289C468.7 333.678 468.909 333.068 469.122 332.459C469.213 332.188 469.304 331.917 469.398 331.638C469.479 331.406 469.559 331.175 469.641 330.937C469.797 330.147 469.683 329.58 469.477 328.808C456.42 325.16 443.266 321.923 429.848 319.86C429.171 319.756 428.495 319.65 427.819 319.545C421.473 318.56 415.124 317.892 408.718 317.419C408.216 317.377 408.216 317.377 407.704 317.334C404.057 317.053 400.407 317.056 396.751 317.054C396.405 317.054 396.059 317.053 395.702 317.053C391.434 317.056 387.185 317.111 382.932 317.492Z" fill="#EBFFF9"/>
<path d="M480.284 22.1177C481.39 23.1124 482.471 24.1314 483.537 25.1679C483.703 25.3294 483.87 25.4909 484.042 25.6573C485.185 26.7933 485.185 26.7933 485.185 27.4493C485.625 27.3047 485.625 27.3047 486.074 27.1572C501.943 25.0715 519.725 27.0183 534.089 34.1656C534.337 34.2887 534.586 34.4118 534.841 34.5386C538.416 36.336 541.643 38.3947 544.759 40.8819C544.927 41.0143 545.096 41.1467 545.269 41.2831C549.35 44.5091 552.913 48.1264 556.022 52.2704C556.147 52.4344 556.272 52.5984 556.401 52.7673C559.483 56.8123 561.944 61.1162 564.053 65.7217C564.321 66.2877 564.608 66.8404 564.899 67.3947C571.531 80.3656 574.386 97.6647 573.694 112.032C573.205 117.4 573.205 117.4 575.062 122.236C575.787 123.008 576.553 123.717 577.352 124.414C578.457 125.456 579.318 126.686 580.214 127.902C580.587 128.397 580.96 128.892 581.333 129.387C581.689 129.865 582.045 130.343 582.4 130.822C582.561 131.039 582.723 131.256 582.889 131.479C585.174 134.567 587.253 137.748 589.217 141.043C589.365 141.291 589.514 141.54 589.667 141.796C591.5 144.884 593.264 147.992 594.837 151.216C595.184 151.927 595.535 152.636 595.886 153.345C596.145 153.874 596.405 154.402 596.664 154.932C596.781 155.169 596.898 155.407 597.019 155.652C598.81 159.342 600.224 163.162 601.499 167.05C601.603 167.369 601.603 167.369 601.71 167.694C603.912 174.435 605.493 181.321 606.407 188.349C606.433 188.535 606.459 188.721 606.485 188.913C607.016 192.855 607.101 196.771 607.094 200.744C607.093 201.772 607.1 202.799 607.107 203.827C607.154 220.391 602.795 236.879 595.367 251.698C595.252 251.927 595.137 252.157 595.019 252.394C594.189 254.002 593.225 255.491 592.181 256.972C591.034 255.891 590.066 254.747 589.106 253.504C587.946 252.026 586.762 250.648 585.364 249.38C584.959 249.001 584.558 248.616 584.178 248.212C584.178 248.019 584.178 247.826 584.178 247.628C584.003 247.549 583.827 247.47 583.646 247.389C582.993 247.044 582.563 246.688 582.03 246.186C572.954 238.234 560.287 233.878 548.316 233.027C547.164 235.201 546.097 237.392 545.141 239.657C545.04 239.896 544.938 240.134 544.834 240.381C544.511 241.141 544.19 241.902 543.87 242.663C543.715 243.032 543.715 243.032 543.557 243.407C542.805 245.196 542.058 246.986 541.314 248.777C541.2 249.051 541.086 249.325 540.968 249.607C538.833 254.747 536.769 259.913 534.749 265.098C534.436 265.896 534.117 266.691 533.793 267.485C533.695 267.485 533.597 267.485 533.496 267.485C533.664 264.184 533.98 260.923 534.423 257.647C534.47 257.292 534.47 257.292 534.519 256.93C536.397 243.076 539.231 228.385 545.648 215.798C545.812 215.465 545.812 215.465 545.978 215.126C549.144 208.698 553.624 202.141 560.468 199.153C561.328 198.949 561.328 198.949 561.949 198.861C562.015 200.799 561.814 202.478 561.338 204.355C561.272 204.62 561.205 204.886 561.137 205.16C559.823 210.245 557.811 214.911 555.429 219.594C556.475 219.958 557.525 220.266 558.599 220.537C567.686 222.827 575.787 226.783 582.993 232.735C583.266 232.948 583.54 233.16 583.822 233.379C585.315 234.547 586.663 235.712 587.873 237.166C588.387 237.769 588.942 238.317 589.513 238.867C599.167 222.318 599.191 203.376 594.366 185.334C592.485 178.604 589.772 172.208 586.846 165.864C586.686 165.513 586.686 165.513 586.523 165.156C581.927 155.091 575.694 145.533 569.063 136.662C568.911 136.459 568.76 136.256 568.604 136.047C566.975 133.867 565.307 131.722 563.58 129.618C563.421 129.42 563.263 129.223 563.1 129.019C562.332 128.073 561.574 127.223 560.63 126.444C558.814 124.87 558.04 123.582 557.83 121.163C557.734 119.334 557.756 117.503 557.786 115.673C557.814 113.779 557.716 111.905 557.559 110.016C557.534 109.712 557.509 109.407 557.483 109.093C556.126 93.8557 552.004 75.431 540.369 64.3137C540.017 63.951 540.017 63.951 540.017 63.367C539.821 63.367 539.626 63.367 539.424 63.367C538.687 62.713 538.064 62.1537 537.627 61.2681C537.397 60.6991 537.397 60.6991 536.84 60.5016C535.944 60.0423 535.3 59.4179 534.552 58.7495C530.601 55.357 525.874 52.7858 521.048 50.8104C520.835 50.7225 520.623 50.6346 520.404 50.544C512.524 47.3459 504.221 46.0788 495.745 46.1001C495.006 46.1016 494.268 46.1001 493.529 46.0982C493.289 46.0984 493.048 46.0986 492.8 46.0988C492.321 46.0992 491.841 46.0978 491.362 46.0948C489.911 46.096 488.58 46.2652 487.147 46.51C485.827 46.6138 485.327 46.5224 484.209 45.7941C483.164 44.8921 482.25 43.8788 481.332 42.853C480.701 42.1719 480.063 41.4967 479.424 40.8226C479.268 40.6557 479.111 40.4888 478.95 40.3168C477.249 38.5338 475.324 37.0747 473.33 35.6256C472.93 35.3345 472.93 35.3345 472.522 35.0375C467.294 31.2879 461.422 28.4514 455.25 26.5732C455.034 26.507 454.817 26.4408 454.593 26.3726C446.3 23.9001 436.831 23.2782 428.279 24.8211C428.017 24.8667 427.754 24.9122 427.484 24.9592C420.36 26.1545 420.36 26.1545 413.756 28.9093C413.441 29.6607 413.216 30.3358 413.015 31.1177C412.953 31.3493 412.892 31.5808 412.828 31.8194C408.07 50.5177 410.628 70.8083 414.942 89.3562C415.021 89.7021 415.101 90.048 415.183 90.4043C416.95 97.9686 419.344 105.365 421.865 112.714C425.715 123.938 428.729 135.335 429.761 147.175C430.349 145.716 430.935 144.257 431.518 142.796C431.716 142.3 431.915 141.804 432.115 141.308C432.404 140.593 432.689 139.878 432.974 139.162C433.063 138.942 433.152 138.723 433.244 138.497C434.124 136.268 434.271 134.423 433.865 132.083C433.825 131.839 433.785 131.595 433.744 131.344C433.612 130.542 433.474 129.742 433.336 128.942C433.289 128.665 433.242 128.387 433.194 128.102C431.688 119.224 429.82 110.456 427.673 101.709C426.267 95.9818 424.916 90.2386 424.13 84.3919C424.084 84.0774 424.084 84.0774 424.037 83.7566C423.058 76.8902 423.018 69.3421 424.13 62.4909C424.165 62.272 424.2 62.0531 424.236 61.8276C425.535 54.1337 428.44 46.307 433.614 40.2979C433.81 40.2979 434.005 40.2979 434.207 40.2979C436.166 44.268 437.504 48.2997 438.653 52.5624C438.715 52.7903 438.776 53.0181 438.84 53.2528C439.149 54.4191 439.307 55.443 439.245 56.6506C439.441 56.747 439.637 56.8434 439.838 56.9427C439.94 57.6065 439.94 57.6065 439.986 58.5122C440.089 60.1682 440.245 61.8094 440.431 63.4582C441.557 73.8935 440.937 84.2028 439.838 94.6124C439.643 94.6124 439.447 94.6124 439.245 94.6124C439.228 94.2878 439.228 94.2878 439.21 93.9565C438.647 83.9504 437.837 73.6923 434.207 64.243C433.436 65.3819 433.278 66.434 433.021 67.7654C432.97 68.0322 432.918 68.2991 432.865 68.574C430.495 81.6486 432.855 94.4948 435.453 107.328C436.337 111.711 437.141 116.101 437.848 120.515C437.881 120.719 437.915 120.924 437.949 121.134C438.036 121.676 438.121 122.218 438.206 122.76C438.277 123.498 438.277 123.498 438.653 123.814C438.75 123.507 438.847 123.201 438.947 122.885C439.307 121.749 439.668 120.614 440.029 119.479C440.186 118.988 440.342 118.496 440.498 118.004C440.721 117.298 440.946 116.592 441.171 115.886C441.24 115.666 441.31 115.445 441.382 115.218C441.879 113.66 441.879 113.66 442.209 113.009C444.634 113.166 446.941 113.652 449.304 114.196C450.017 114.358 450.729 114.52 451.442 114.68C451.91 114.788 451.91 114.788 452.387 114.897C453.187 115.082 453.187 115.082 454.065 115.053C454.025 114.764 453.986 114.474 453.945 114.175C453.893 113.774 453.84 113.374 453.787 112.973C453.761 112.784 453.735 112.596 453.709 112.401C453.222 108.676 453.115 104.952 453.12 101.201C453.12 100.971 453.12 100.741 453.12 100.503C453.129 96.6659 453.259 92.8733 453.768 89.0642C453.823 88.652 453.823 88.652 453.879 88.2315C455.275 78.2338 458.417 68.7069 463.345 59.8628C463.527 59.5353 463.527 59.5353 463.712 59.2011C464.34 58.1027 464.947 57.2013 465.92 56.3586C472.365 71.3226 470.055 90.977 465.92 106.293C465.822 106.293 465.725 106.293 465.624 106.293C465.61 105.951 465.597 105.609 465.583 105.256C465.311 97.3731 465.311 97.3731 464.605 89.5204C464.572 89.2508 464.54 88.9811 464.506 88.7032C464.275 86.9903 463.886 85.3439 463.431 83.6755C463.253 82.9319 463.253 82.9319 463.253 82.0558C463.057 82.0558 462.861 82.0558 462.66 82.0558C462.629 82.3171 462.597 82.5783 462.565 82.8475C462.373 84.1735 462.057 85.4678 461.75 86.7718C461.084 89.6031 460.46 92.427 460.048 95.306C460.015 95.5358 459.982 95.7657 459.948 96.0025C459.463 99.6243 459.352 103.225 459.361 106.872C459.363 107.625 459.361 108.378 459.359 109.13C459.358 111.703 459.409 114.245 459.696 116.805C460.044 116.915 460.044 116.915 460.399 117.027C467.903 119.406 475.067 122.3 482.221 125.566C482.252 125.244 482.283 124.921 482.315 124.589C483.179 117.862 486.533 110.955 489.927 105.125C490.296 106.216 490.091 106.538 489.705 107.607C487.462 114.62 487.617 122.441 488.742 129.654C488.956 129.732 489.171 129.809 489.392 129.889C490.229 130.24 490.923 130.65 491.678 131.148C491.947 131.326 492.217 131.503 492.494 131.686C492.772 131.87 493.05 132.055 493.336 132.246C493.753 132.52 493.753 132.52 494.178 132.799C495.264 133.517 496.327 134.23 497.346 135.04C497.884 135.555 497.884 135.555 498.523 135.494C498.648 135.271 498.773 135.047 498.903 134.817C499.376 133.973 499.85 133.13 500.324 132.286C500.528 131.924 500.732 131.561 500.935 131.199C503.826 126.044 503.826 126.044 504.747 124.69C504.845 124.69 504.942 124.69 505.043 124.69C505.081 126.601 504.939 128.42 504.69 130.313C504.623 130.881 504.557 131.449 504.492 132.016C504.389 132.901 504.283 133.785 504.163 134.667C503.55 137.946 503.55 137.946 504.4 140.996C505.091 141.523 505.729 141.866 506.525 142.211C507.262 142.9 507.919 143.539 508.481 144.376C509.168 145.268 509.662 145.774 510.675 146.299C512.438 146.4 514.197 145.934 515.91 145.565C526.865 143.316 539.553 146.034 548.908 151.847C549.959 152.568 550.92 153.342 551.872 154.183C552.139 154.408 552.406 154.633 552.68 154.864C554.61 156.527 556.251 158.305 557.8 160.316C557.972 160.536 558.145 160.756 558.322 160.983C566.416 171.82 568.354 185.492 569.063 198.569C568.867 198.569 568.672 198.569 568.47 198.569C568.319 198.269 568.169 197.969 568.014 197.66C567.381 196.403 566.741 195.15 566.099 193.897C565.958 193.62 565.816 193.342 565.67 193.056C563.691 189.326 561.193 185.826 558.482 182.578C557.504 181.397 557.504 181.397 557.504 180.756C557.308 180.756 557.112 180.756 556.911 180.756C556.493 180.348 556.493 180.348 556.003 179.771C555.816 179.556 555.63 179.34 555.437 179.118C555.239 178.888 555.04 178.658 554.836 178.42C551.943 175.08 548.682 171.933 545.055 169.368C544.881 169.242 544.706 169.117 544.526 168.988C540.061 165.786 535.432 163.107 530.532 160.608C530.532 160.511 530.532 160.415 530.532 160.316C536.504 160.078 541.393 161.142 546.834 163.528C547.127 163.624 547.421 163.72 547.723 163.82C543.435 157.553 537.773 153.968 530.236 152.431C529.928 152.366 529.928 152.366 529.614 152.3C525.483 151.455 521.4 151.456 517.195 151.555C517.371 151.74 517.547 151.924 517.729 152.114C519.593 154.096 521.313 156.155 522.983 158.298C523.43 158.869 523.883 159.437 524.336 160.004C528.08 164.717 531.408 169.701 534.385 174.916C534.538 175.178 534.538 175.178 534.693 175.446C536.082 177.854 537.267 180.341 538.405 182.874C538.54 183.169 538.675 183.465 538.813 183.77C538.997 184.187 538.997 184.187 539.184 184.612C539.295 184.861 539.406 185.11 539.52 185.366C539.72 186.013 539.72 186.013 539.424 186.889C539.291 186.63 539.157 186.372 539.02 186.105C537.46 183.126 535.688 180.326 533.793 177.544C533.582 177.234 533.582 177.234 533.367 176.917C531.728 174.51 530.035 172.189 528.161 169.952C527.785 169.478 527.408 169.003 527.031 168.528C525.852 167.073 524.583 165.711 523.298 164.348C522.681 163.689 522.083 163.023 521.493 162.341C519.454 160.029 517.196 157.912 514.824 155.935C514.562 155.709 514.3 155.484 514.03 155.251C498.368 141.836 478.954 132.615 458.825 127.92C458.275 127.791 458.275 127.791 457.713 127.659C455.609 127.185 453.553 126.857 451.397 126.734C451.314 126.908 451.231 127.083 451.145 127.262C447.13 135.655 442.742 143.855 437.467 151.555C437.331 151.754 437.195 151.954 437.055 152.159C430.822 161.273 423.105 171.917 412.867 176.96C412.671 176.864 412.476 176.768 412.274 176.668C412.474 176.415 412.675 176.161 412.881 175.899C413.148 175.56 413.415 175.22 413.682 174.88C413.813 174.713 413.945 174.547 414.08 174.376C414.721 173.559 415.33 172.743 415.891 171.871C416.067 171.623 416.242 171.375 416.424 171.12C416.619 171.12 416.815 171.12 417.016 171.12C417.09 170.909 417.165 170.698 417.241 170.481C417.643 169.584 418.13 168.96 418.758 168.2C420.741 165.654 422.282 162.839 423.833 160.023C423.953 159.814 424.073 159.604 424.196 159.388C426.524 155.139 424.489 148.965 423.219 144.629C421.828 140.151 420.193 135.781 418.225 131.517C417.915 130.843 417.613 130.166 417.313 129.488C415.838 126.178 414.237 122.931 412.631 119.682C410.745 115.869 408.904 112.037 407.113 108.18C406.795 107.496 406.476 106.812 406.156 106.129C399.449 91.807 394.855 77.315 393.009 61.6149C392.964 61.2352 392.919 60.8555 392.872 60.4644C392.165 54.336 392.028 48.2143 392.009 42.0499C392.006 41.6924 392.004 41.3349 392.002 40.9665C391.962 33.143 392.629 25.4316 394.491 17.8128C394.548 17.5769 394.605 17.341 394.664 17.0979C394.822 16.4797 394.994 15.8689 395.176 15.2577C395.273 14.934 395.37 14.6102 395.469 14.2767C396.625 12.3396 399.148 11.5509 401.16 10.6767C401.421 10.5629 401.681 10.4491 401.95 10.3318C408.594 7.46154 415.485 5.52234 422.648 4.38017C423.028 4.3143 423.408 4.24842 423.8 4.18055C444.25 1.17793 465.099 8.73 480.284 22.1177Z" fill="#EBFFF9"/>
<path d="M0 274.785C113.946 274.785 227.892 274.785 345.291 274.785C344.476 275.588 344.078 275.86 343.061 276.283C342.651 276.453 342.651 276.453 342.232 276.628C341.933 276.748 341.634 276.869 341.326 276.993C340.852 277.185 340.852 277.185 340.368 277.381C320.071 285.475 298.957 289.215 277.12 289.241C275.592 289.244 274.064 289.252 272.536 289.259C269.659 289.272 266.782 289.28 263.905 289.287C260.623 289.295 257.341 289.308 254.059 289.321C247.322 289.348 240.586 289.369 233.849 289.386C234.247 289.653 234.247 289.653 234.652 289.925C235.003 290.162 235.354 290.399 235.705 290.637C235.88 290.754 236.054 290.871 236.234 290.991C237.539 291.875 238.656 292.801 239.703 293.967C239.859 294.136 240.016 294.306 240.178 294.481C241.756 296.237 243.018 298.173 244.223 300.19C243.205 301.245 242.17 302.099 240.944 302.909C240.641 303.113 240.338 303.317 240.026 303.527C239.184 303.986 239.184 303.986 237.999 303.986C237.491 303.355 237.491 303.355 236.998 302.508C235.722 300.418 234.237 298.079 231.774 297.27C231.774 297.077 231.774 296.885 231.774 296.686C231.355 296.545 230.935 296.406 230.515 296.266C230.281 296.188 230.047 296.11 229.806 296.03C227.217 295.215 224.791 295.297 222.29 296.394C220.131 297.559 218.058 298.9 216.103 300.373C215.177 301.066 215.177 301.066 214.584 301.066C214.584 301.259 214.584 301.452 214.584 301.65C214.178 301.978 214.178 301.978 213.565 302.362C212.656 302.936 211.75 303.511 210.857 304.108C201.335 310.419 191.113 314.555 179.481 312.728C174.149 311.559 169.569 308.858 165.217 305.702C165.023 305.562 164.829 305.422 164.629 305.278C163.475 304.419 162.529 303.505 161.616 302.399C161.197 301.882 161.197 301.882 160.512 301.23C159.514 300.247 158.598 299.2 157.678 298.146C158.743 298.146 158.884 298.328 159.678 298.986C167.522 305.148 176.268 308.392 186.377 307.376C191.665 306.354 196.788 302.812 200.949 299.576C203.056 297.938 205.264 296.438 207.471 294.934C207.789 294.716 208.108 294.499 208.436 294.275C211.164 292.447 214.001 290.831 216.955 289.386C216.62 289.385 216.285 289.385 215.94 289.385C201.162 289.372 186.384 289.358 171.606 289.339C171.27 289.339 171.27 289.339 170.927 289.338C166.052 289.332 161.177 289.325 156.302 289.319C153.911 289.315 151.52 289.312 149.128 289.309C148.772 289.308 148.771 289.308 148.407 289.308C140.715 289.298 133.023 289.29 125.331 289.284C117.417 289.278 109.502 289.268 101.588 289.256C100.467 289.254 99.3453 289.252 98.2238 289.25C98.0031 289.25 97.7824 289.25 97.555 289.249C94.0228 289.244 90.4907 289.241 86.9585 289.24C83.3951 289.239 79.8318 289.234 76.2684 289.226C74.3427 289.222 72.417 289.219 70.4913 289.221C62.5572 289.224 54.7154 289.147 46.8291 288.218C46.4464 288.173 46.0638 288.128 45.6695 288.081C30.2046 286.229 13.6585 282.77 0 275.077C0 274.981 0 274.884 0 274.785Z" fill="#EBFFF9"/>
<path d="M94.8432 295.518C94.8432 296.522 94.6014 296.926 94.1208 297.799C92.8499 300.25 92.7929 302.775 93.3613 305.446C93.5578 305.349 93.7543 305.252 93.9568 305.152C105.223 299.625 117.773 296.08 130.206 300.099C132.568 300.907 134.8 301.95 136.997 303.122C137.472 303.375 137.952 303.619 138.432 303.862C144.187 306.925 149.305 312.029 153.231 317.127C153.424 317.375 153.424 317.375 153.62 317.628C156.498 321.359 158.918 325.31 161.211 329.41C161.499 329.919 161.794 330.424 162.091 330.928C164.883 335.812 167.068 341.228 168.903 346.529C168.975 346.735 169.048 346.941 169.122 347.153C169.459 348.178 169.553 348.808 169.236 349.832C169.149 349.646 169.061 349.46 168.971 349.269C166.791 344.66 164.443 340.198 161.827 335.816C161.685 335.576 161.543 335.336 161.397 335.089C157.254 328.103 152.187 321.302 145.229 316.835C145.023 316.689 144.816 316.543 144.604 316.392C138.939 312.632 130.761 311.542 124.121 312.625C118.22 314.008 113.007 317.276 108.693 321.389C107.645 322.383 107.645 322.383 106.995 322.383C106.995 322.576 106.995 322.769 106.995 322.967C106.799 322.967 106.604 322.967 106.402 322.967C106.402 323.16 106.402 323.353 106.402 323.551C106.207 323.551 106.011 323.551 105.81 323.551C105.73 323.726 105.651 323.9 105.569 324.08C105.221 324.711 104.863 325.116 104.328 325.595C104.034 325.499 103.741 325.403 103.438 325.303C103.091 324.571 102.801 323.872 102.531 323.113C102.453 322.899 102.375 322.684 102.294 322.464C100.988 318.81 100.256 314.96 101.956 311.287C102.151 310.896 102.348 310.506 102.549 310.119C102.745 310.119 102.94 310.119 103.142 310.119C103.181 310.407 103.221 310.695 103.261 310.992C103.314 311.366 103.366 311.741 103.42 312.126C103.471 312.499 103.523 312.871 103.576 313.255C103.68 314.17 103.68 314.17 104.031 314.791C105.179 314.381 106.124 313.844 107.143 313.185C114.215 308.786 121.853 306.576 130.113 305.738C123.466 303.87 116.018 303.866 109.366 305.738C109.139 305.801 108.912 305.863 108.679 305.928C105.361 306.868 102.314 308.198 99.289 309.826C98.9788 309.992 98.6685 310.157 98.3489 310.327C96.6698 311.257 95.0798 312.289 93.5095 313.385C93.3352 313.507 93.1609 313.628 92.9814 313.754C92.039 314.425 91.193 315.123 90.3974 315.959C90.104 315.862 89.8106 315.766 89.5082 315.667C88.4112 309.992 87.7656 304.101 91.1025 298.979C92.1183 297.573 93.2521 296.302 94.8432 295.518Z" fill="#EBFFF9"/>
<path d="M420.276 190.977C422.375 191.115 424.301 191.483 426.315 192.072C426.723 192.19 426.723 192.19 427.138 192.309C431.432 193.573 435.36 194.943 437.71 198.892C440.016 203.175 441.164 208.349 440.134 213.17C439.459 212.504 439.166 211.815 438.782 210.962C436.497 205.894 433.316 201.278 428.279 198.569C427.949 198.383 427.619 198.196 427.279 198.004C425.171 197.395 422.879 197.354 420.869 198.277C420.869 198.47 420.869 198.663 420.869 198.861C421.042 198.939 421.215 199.017 421.392 199.098C425.017 201.002 427.49 204.685 428.797 208.407C429.352 210.336 429.386 212.345 429.464 214.338C428.575 214.63 428.575 214.63 427.955 214.369C427.719 214.232 427.484 214.095 427.241 213.954C426.978 213.803 426.715 213.651 426.444 213.496C426.032 213.253 426.032 213.253 425.611 213.006C425.074 212.695 424.537 212.384 424 212.074C423.592 211.838 423.592 211.838 423.176 211.597C421.829 210.828 420.46 210.102 419.091 209.374C418.509 209.062 417.928 208.749 417.346 208.436C417.062 208.284 416.779 208.131 416.486 207.974C415.181 207.273 413.876 206.571 412.57 205.87C413.332 204.294 414.155 202.878 415.201 201.471C415.331 201.293 415.461 201.114 415.595 200.93C416.26 200.027 416.94 199.18 417.72 198.369C419.511 196.38 419.881 193.516 420.276 190.977Z" fill="#EBFFF9"/>
<path d="M479.849 248.504C481.369 249.915 481.824 251.811 482.009 253.804C482.147 258.976 479.85 263.383 476.365 267.114C473.537 269.997 470.101 272.508 465.919 272.741C465.839 272.589 465.76 272.437 465.678 272.281C464.591 270.375 463.283 269.344 461.177 268.653C460.461 268.624 459.744 268.615 459.028 268.616C458.647 268.615 458.267 268.615 457.875 268.614C456.771 268.651 455.744 268.77 454.656 268.945C456.053 265.533 460.346 262.947 463.566 261.517C465.265 260.904 466.933 260.691 468.665 261.294C469.719 261.792 470.624 262.403 471.55 263.104C474.166 260.021 477.487 255.931 477.182 251.716C476.639 250.952 476.319 250.849 475.403 250.548C473.08 250.379 470.863 250.693 468.586 251.132C471.128 248.371 476.407 246.217 479.849 248.504Z" fill="#EBFFF9"/>
<path d="M379.672 356.549C380.376 356.932 380.376 356.932 380.858 357.717C381.569 361.5 379.351 365.19 377.301 368.229C376.541 369.229 375.742 370.19 374.93 371.15C374.773 371.369 374.615 371.589 374.453 371.816C374.317 371.981 374.181 372.147 374.041 372.318C373.845 372.318 373.65 372.318 373.448 372.318C373.386 372.482 373.324 372.647 373.259 372.817C372.707 373.732 372 374.206 371.133 374.836C370.825 375.063 370.518 375.289 370.201 375.523C368.703 376.504 367.555 376.893 365.742 376.698C365.02 376.296 365.02 376.296 364.557 375.53C363.892 372.365 365.611 368.926 367.31 366.327C367.477 366.087 367.644 365.848 367.817 365.601C368.009 365.326 368.2 365.05 368.398 364.766C370.879 361.36 374.897 356.069 379.672 356.549Z" fill="#EBFFF9"/>
<path d="M298.164 511.9C299.723 513.304 299.869 515.015 300.019 516.992C300.197 522.789 298.822 529.596 294.904 534.093C294.062 534.943 293.697 535.217 292.515 535.407C291.644 535.261 291.644 535.261 290.996 534.841C288.876 531.889 289.26 527.815 289.814 524.396C290.574 520.307 291.851 515.493 294.904 512.484C296.068 511.752 296.848 511.354 298.164 511.9Z" fill="#EBFFF9"/>
<path d="M344.697 405.023C345.429 405.59 345.58 405.881 345.882 406.775C346.278 412.725 343.219 419.006 339.32 423.413C337.879 424.997 336.481 426.436 334.268 426.778C333.22 426.594 332.882 426.295 332.249 425.464C331.104 422.832 332.401 419.181 333.384 416.655C335.007 412.823 337.052 408.661 340.547 406.191C340.716 406.069 340.885 405.947 341.059 405.821C342.336 404.941 343.177 404.574 344.697 405.023Z" fill="#EBFFF9"/>
<path d="M317.726 458.17C319.121 459.82 319.084 461.963 318.911 464.01C318.146 469.664 315.948 476.761 311.133 480.391C310.077 480.925 309.41 480.881 308.241 480.655C307.001 479.496 306.84 478.242 306.75 476.597C306.815 470.267 309.491 463.504 313.928 458.918C315.217 457.761 316.065 457.76 317.726 458.17Z" fill="#EBFFF9"/>
<path d="M387.377 215.506C391.28 215.938 395.625 216.543 398.325 219.649C399.258 220.903 399.401 221.853 399.232 223.39C398.832 224.358 398.498 224.99 397.75 225.727C396.563 225.644 395.975 225.291 395.151 224.468C394.956 224.274 394.76 224.08 394.558 223.88C394.358 223.677 394.159 223.473 393.953 223.263C393.748 223.06 393.542 222.857 393.331 222.648C391.823 221.136 391.823 221.136 391.823 220.47C391.627 220.47 391.432 220.47 391.23 220.47C389.798 218.94 388.492 217.274 387.377 215.506Z" fill="#EBFFF9"/>
</g>
<defs>
<clipPath id="clip0_286_1545">
<rect width="607" height="596" fill="white"/>
</clipPath>
</defs>
</svg>
